<svg width="20" height="20" viewBox="0 0 20 20" fill="none" xmlns="http://www.w3.org/2000/svg">
<path d="M1.66675 8.41602C1.66675 7.48232 1.84015 6.60863 2.18696 5.79498C2.53821 4.98132 3.02285 4.26547 3.64087 3.64745C4.26334 3.02498 4.98141 2.54034 5.79507 2.19353C6.61317 1.84228 7.48685 1.66666 8.41611 1.66666C9.34538 1.66666 10.2168 1.84228 11.0305 2.19353C11.8486 2.54034 12.5667 3.02498 13.1847 3.64745C13.8027 4.26547 14.2874 4.98132 14.6386 5.79498C14.9899 6.60863 15.1655 7.48232 15.1655 8.41602C15.1655 9.19856 15.0365 9.94553 14.7787 10.6569C14.5208 11.3639 14.1651 12.0019 13.7116 12.571L18.0867 16.9661C18.1667 17.0506 18.2267 17.1462 18.2667 17.2529C18.3112 17.3596 18.3334 17.473 18.3334 17.593C18.3334 17.7575 18.2956 17.9087 18.22 18.0465C18.1489 18.1844 18.0466 18.2933 17.9132 18.3733C17.7799 18.4534 17.6265 18.4934 17.4531 18.4934C17.333 18.4934 17.2174 18.4712 17.1063 18.4267C16.9951 18.3822 16.8973 18.3178 16.8128 18.2333L12.4177 13.8315C11.8575 14.2495 11.2372 14.5763 10.557 14.8119C9.88115 15.0431 9.16753 15.1587 8.41611 15.1587C7.48685 15.1587 6.61317 14.9853 5.79507 14.6385C4.98141 14.2873 4.26334 13.8026 3.64087 13.1846C3.02285 12.5621 2.53821 11.8441 2.18696 11.0304C1.84015 10.2167 1.66675 9.34528 1.66675 8.41602ZM2.91391 8.41602C2.91391 9.17188 3.05619 9.88328 3.34075 10.5502C3.62976 11.2127 4.02547 11.7974 4.52789 12.3042C5.03032 12.8067 5.61277 13.2002 6.27526 13.4847C6.94219 13.7693 7.65581 13.9116 8.41611 13.9116C9.17197 13.9116 9.88115 13.7693 10.5436 13.4847C11.2106 13.2002 11.7952 12.8067 12.2977 12.3042C12.8045 11.7974 13.2003 11.2127 13.4848 10.5502C13.7694 9.88328 13.9116 9.17188 13.9116 8.41602C13.9116 7.65572 13.7694 6.94432 13.4848 6.28184C13.2003 5.6149 12.8045 5.03022 12.2977 4.5278C11.7952 4.02093 11.2106 3.62522 10.5436 3.34066C9.88115 3.0561 9.17197 2.91382 8.41611 2.91382C7.65581 2.91382 6.94219 3.0561 6.27526 3.34066C5.61277 3.62522 5.03032 4.02093 4.52789 4.5278C4.02547 5.03022 3.62976 5.6149 3.34075 6.28184C3.05619 6.94432 2.91391 7.65572 2.91391 8.41602Z" fill="#737682"/>
</svg>
