<svg width="24" height="24" viewBox="0 0 24 24" fill="none" xmlns="http://www.w3.org/2000/svg">
<path d="M2 10.0992C2 8.97879 2.20808 7.93037 2.62425 6.95398C3.04575 5.97759 3.62732 5.11858 4.36895 4.37695C5.11591 3.62999 5.97759 3.04842 6.95398 2.63225C7.93571 2.21075 8.98413 2 10.0992 2C11.2144 2 12.2601 2.21075 13.2365 2.63225C14.2182 3.04842 15.0799 3.62999 15.8215 4.37695C16.5632 5.11858 17.1447 5.97759 17.5662 6.95398C17.9877 7.93037 18.1985 8.97879 18.1985 10.0992C18.1985 11.0383 18.0438 11.9346 17.7343 12.7883C17.4248 13.6367 16.998 14.4023 16.4538 15.0852L21.7039 20.3593C21.7999 20.4607 21.8719 20.5754 21.92 20.7035C21.9733 20.8315 22 20.9676 22 21.1116C22 21.3091 21.9546 21.4905 21.8639 21.6559C21.7786 21.8213 21.6559 21.952 21.4958 22.048C21.3357 22.1441 21.1517 22.1921 20.9436 22.1921C20.7995 22.1921 20.6608 22.1654 20.5274 22.112C20.394 22.0587 20.2766 21.9813 20.1753 21.88L14.9012 16.5978C14.2289 17.0994 13.4846 17.4915 12.6683 17.7743C11.8573 18.0518 11.0009 18.1905 10.0992 18.1905C8.98413 18.1905 7.93571 17.9824 6.95398 17.5662C5.97759 17.1447 5.11591 16.5632 4.36895 15.8215C3.62732 15.0746 3.04575 14.2129 2.62425 13.2365C2.20808 12.2601 2 11.2144 2 10.0992ZM3.4966 10.0992C3.4966 11.0063 3.66733 11.8599 4.0088 12.6603C4.35561 13.4552 4.83047 14.1569 5.43337 14.7651C6.03628 15.368 6.73523 15.8402 7.53021 16.1817C8.33053 16.5231 9.18687 16.6939 10.0992 16.6939C11.0063 16.6939 11.8573 16.5231 12.6523 16.1817C13.4526 15.8402 14.1542 15.368 14.7571 14.7651C15.3653 14.1569 15.8402 13.4552 16.1817 12.6603C16.5231 11.8599 16.6939 11.0063 16.6939 10.0992C16.6939 9.18688 16.5231 8.3332 16.1817 7.53822C15.8402 6.7379 15.3653 6.03628 14.7571 5.43337C14.1542 4.82513 13.4526 4.35027 12.6523 4.0088C11.8573 3.66733 11.0063 3.4966 10.0992 3.4966C9.18687 3.4966 8.33053 3.66733 7.53021 4.0088C6.73523 4.35027 6.03628 4.82513 5.43337 5.43337C4.83047 6.03628 4.35561 6.7379 4.0088 7.53822C3.66733 8.3332 3.4966 9.18688 3.4966 10.0992Z" fill="#96A9C0" stroke="#96A9C0"/>
</svg>
